<svg aria-hidden="true" style="width:0;height:0;position:absolute;overflow:hidden" xmlns="http://www.w3.org/2000/svg"><defs><symbol id="icon-arrow-left_40_40" viewBox="0 0 32 32"><path d="M31.083 15H5.005l6-6-1.414-1.414L1.177 16l8.414 8.414L11.005 23l-6-6h26.078v-2z"/></symbol><symbol id="icon-close_x_24_24" viewBox="0 0 32 32"><path stroke-linejoin="round" stroke-linecap="round" stroke-width="2" d="m27.428 3.429-24 24m0-24 24 24"/></symbol><symbol id="icon-arrow-down_24_24" viewBox="0 0 32 32"><path d="M3.272 10.587c.362-.362.862-.586 1.414-.586s1.052.224 1.414.586l9.9 9.897 9.9-9.9a2 2 0 0 1 2.827 2.829l.001-.001-11.313 11.315c-.362.362-.862.586-1.414.586s-1.052-.224-1.414-.586L3.272 13.414c-.361-.362-.585-.861-.585-1.413s.224-1.052.585-1.413z"/></symbol><symbol id="icon-arrow-left_32_32" viewBox="0 0 32 32"><path d="M31 15.49H4.84l6.019-6.061L9.44 8 1 16.5 9.44 25l1.419-1.429-6.019-6.06H31V15.49z"/></symbol><symbol id="icon-arrow-right_24_24" viewBox="0 0 32 32"><path d="M22.492 7.587 21.079 9l6 6H1v2h26.077l-6 6 1.415 1.413L30.905 16l-8.413-8.413z"/></symbol><symbol id="icon-arrow-right_32_32" viewBox="0 0 32 32"><path d="m22.56 8-1.42 1.429 6.02 6.06H1v2.021h26.16l-6.02 6.061L22.56 25 31 16.5 22.56 8z"/></symbol><symbol id="icon-arrow-right_40_40" viewBox="0 0 32 32"><path d="M22.492 7.586 21.078 9l6 6H1v2h26.078l-6 6 1.414 1.414L30.906 16l-8.414-8.414z"/></symbol><symbol id="icon-facebook_24_24" viewBox="0 0 32 32"><path d="M14.26 11.916v1.836h-1.344v2.244h1.344v6.671h2.763v-6.671h1.853s.175-1.076.259-2.253h-2.101V12.21c0-.231.301-.539.6-.539h1.504V9.334h-2.047c-2.899 0-2.831 2.247-2.831 2.583z"/><path d="M8 5.333A2.667 2.667 0 0 0 5.333 8v16A2.667 2.667 0 0 0 8 26.667h16A2.667 2.667 0 0 0 26.667 24V8A2.667 2.667 0 0 0 24 5.333H8zm0-2.666h16A5.333 5.333 0 0 1 29.333 8v16A5.333 5.333 0 0 1 24 29.333H8A5.333 5.333 0 0 1 2.667 24V8A5.333 5.333 0 0 1 8 2.667z"/></symbol><symbol id="icon-insta_24_24" viewBox="0 0 32 32"><path d="M9.953 1.421c1.564-.072 2.063-.088 6.047-.088s4.483.017 6.045.088c1.563.071 2.629.32 3.563.681a7.218 7.218 0 0 1 2.597 1.693 7.158 7.158 0 0 1 1.691 2.596c.363.933.611 2 .683 3.56.072 1.567.088 2.065.088 6.048 0 3.984-.017 4.483-.088 6.047-.071 1.56-.32 2.627-.683 3.56a7.234 7.234 0 0 1-1.69 2.598l-.001.001a7.187 7.187 0 0 1-2.597 1.691c-.933.363-2 .611-3.56.683-1.565.072-2.064.088-6.048.088s-4.483-.017-6.047-.088c-1.56-.071-2.627-.32-3.56-.683a7.234 7.234 0 0 1-2.598-1.69l-.001-.001a7.196 7.196 0 0 1-1.675-2.548l-.017-.049c-.361-.933-.609-2-.681-3.56-.072-1.567-.088-2.065-.088-6.048 0-3.984.017-4.483.088-6.045s.32-2.629.681-3.563a7.243 7.243 0 0 1 1.692-2.596l.001-.001A7.192 7.192 0 0 1 6.342 2.12l.049-.017c.933-.361 2-.609 3.56-.681h.001zm11.974 2.64C20.38 3.99 19.916 3.976 16 3.976s-4.38.015-5.927.085c-1.431.065-2.207.304-2.724.505a4.57 4.57 0 0 0-1.687 1.096 4.553 4.553 0 0 0-1.086 1.655l-.01.031c-.201.517-.44 1.293-.505 2.724-.071 1.547-.085 2.011-.085 5.927s.015 4.38.085 5.927c.065 1.431.304 2.207.505 2.724a4.56 4.56 0 0 0 1.096 1.687 4.551 4.551 0 0 0 1.687 1.096c.517.201 1.293.44 2.724.505 1.547.071 2.009.085 5.927.085s4.38-.015 5.927-.085c1.431-.065 2.207-.304 2.724-.505a4.57 4.57 0 0 0 1.687-1.096 4.551 4.551 0 0 0 1.096-1.687c.201-.517.44-1.293.505-2.724.071-1.547.085-2.011.085-5.927s-.015-4.38-.085-5.927c-.065-1.431-.304-2.207-.505-2.724a4.57 4.57 0 0 0-1.096-1.687 4.566 4.566 0 0 0-1.655-1.086l-.031-.01c-.517-.201-1.293-.44-2.724-.505zm-7.8 16.46a4.893 4.893 0 1 0 3.555-9.117l-.034-.011a4.893 4.893 0 0 0-3.553 9.115l.032.012zm-3.458-9.852a7.54 7.54 0 0 1 10.662 10.662 7.54 7.54 0 0 1-10.662-10.662zm14.542-1.085a1.782 1.782 0 1 0-2.447-2.591l.001-.001a1.782 1.782 0 1 0 2.447 2.591l-.001.001z"/></symbol><symbol id="icon-location_24_24" viewBox="0 0 19 32"><path d="M9.6.658h-.016A9.584 9.584 0 0 0 0 10.24c0 9.166 9.6 21.12 9.6 21.12s9.6-11.955 9.6-21.12A9.584 9.584 0 0 0 9.616.658h-.017.001zm0 14.881a5.184 5.184 0 0 1 0-10.368 5.184 5.184 0 0 1 0 10.368z"/></symbol><symbol id="icon-phone_12_20" viewBox="0 0 32 32"><path d="M22 0a3.6 3.6 0 0 1 3.6 3.6v24.8A3.6 3.6 0 0 1 22 32H10a3.6 3.6 0 0 1-3.6-3.6V3.6A3.6 3.6 0 0 1 10 0h12zm0 2.4H10a1.2 1.2 0 0 0-1.2 1.2v24.8c0 .662.538 1.2 1.2 1.2h12a1.2 1.2 0 0 0 1.2-1.2V3.6A1.2 1.2 0 0 0 22 2.4zm-4.002 22.4H18a1.2 1.2 0 0 1 .002 2.4l-4 .006H14a1.2 1.2 0 0 1-.002-2.4l4-.006z"/></symbol><symbol id="icon-telegram_24_24" viewBox="0 0 32 32"><path d="M26.069 3.996c-.342.025-.66.105-.953.23l.019-.007h-.003c-.285.113-1.64.683-3.7 1.547L3.608 13.278s-.36.117-.733.373a2.05 2.05 0 0 0-.587.568 1.643 1.643 0 0 0-.277 1.118l-.001-.007c.091.721.559 1.155.893 1.393.341.243.665.355.665.355h.008l4.883 1.645c.219.703 1.488 4.875 1.793 5.836.18.573.355.933.573 1.207.107.14.231.257.379.352.077.045.16.08.247.107l-.051-.013c.016.004.027.016.039.02.04.011.067.015.117.023.773.235 1.395-.245 1.395-.245l.035-.028 2.883-2.625 4.832 3.707.111.048c1.007.441 2.027.196 2.565-.239.324-.264.58-.598.748-.979l.007-.017.035-.089L27.9 6.659c.107-.472.133-.915.017-1.343a1.813 1.813 0 0 0-.781-1.048 1.849 1.849 0 0 0-1.071-.269h.005zm-.1 2.049c-.004.064.008.056-.02.177v.011L22.25 25.164c-.016.027-.044.085-.117.145-.079.061-.14.1-.465-.028l-5.911-4.532-3.569 3.253.751-4.789 9.655-9c.399-.369.267-.448.267-.448.027-.453-.601-.133-.601-.133l-12.176 7.544-.004-.02-5.852-1.972c.012-.004.022-.009.032-.014l-.001.001.032-.015.031-.011 10.508-4.427c2.652-1.117 5.324-2.241 7.379-3.109 1.219-.513 2.44-1.024 3.66-1.531.083-.032.044-.032.103-.032z"/></symbol><symbol id="icon-entypo_location" viewBox="0 0 32 32"><path fill="#f3c653" style="fill:var(--color1,#f3c653)" d="M16 3.214c-4.419 0-8 3.566-8 7.984 0 7.638 8 17.6 8 17.6s8-9.963 8-17.6c0-4.416-3.581-7.984-8-7.984zm0 12.4a4.32 4.32 0 1 1 0-8.64 4.32 4.32 0 1 1 0 8.64z"/><symbol id="icon-close" viewBox="0 0 32 32"><path stroke-linejoin="round" stroke-linecap="round" stroke-width="2" d="m27.429 3.428-24 24"/></symbol></symbol></defs></svg>